<svg xmlns="http://www.w3.org/2000/svg" viewBox="0 0 1200 780" role="img" aria-labelledby="title desc">
  <title id="title">Comparación de rejuvenecimiento facial</title>
  <desc id="desc">Ilustración estética de antes y después para tratamientos antienvejecimiento.</desc>
  <defs>
    <linearGradient id="bg" x1="0" x2="1" y1="0" y2="1">
      <stop offset="0" stop-color="#fff6f2"/>
      <stop offset="0.52" stop-color="#f4ddd5"/>
      <stop offset="1" stop-color="#d6b5a9"/>
    </linearGradient>
    <linearGradient id="leftSkin" x1="0" x2="1" y1="0" y2="1">
      <stop offset="0" stop-color="#ffe0ce"/>
      <stop offset="0.55" stop-color="#f0ad95"/>
      <stop offset="1" stop-color="#d48673"/>
    </linearGradient>
    <linearGradient id="rightSkin" x1="1" x2="0" y1="0" y2="1">
      <stop offset="0" stop-color="#e4aa8e"/>
      <stop offset="0.55" stop-color="#c98268"/>
      <stop offset="1" stop-color="#a96858"/>
    </linearGradient>
    <linearGradient id="soft" x1="0" x2="1">
      <stop offset="0" stop-color="#ffffff" stop-opacity="0.92"/>
      <stop offset="1" stop-color="#ffffff" stop-opacity="0.25"/>
    </linearGradient>
    <filter id="shadow" x="-20%" y="-20%" width="140%" height="140%">
      <feDropShadow dx="0" dy="18" stdDeviation="24" flood-color="#6f4037" flood-opacity="0.22"/>
    </filter>
  </defs>

  <rect width="1200" height="780" fill="url(#bg)"/>
  <circle cx="160" cy="120" r="170" fill="#ffffff" opacity="0.36"/>
  <circle cx="1060" cy="660" r="210" fill="#b46a5b" opacity="0.18"/>
  <rect x="72" y="62" width="1056" height="656" rx="28" fill="#fffdfb" opacity="0.76" filter="url(#shadow)"/>

  <g transform="translate(130 64)">
    <path d="M470 92c-128 0-235 105-245 256-5 85 22 175 72 242 41 54 100 86 173 86s132-32 173-86c50-67 77-157 72-242C705 197 598 92 470 92z" fill="url(#leftSkin)"/>
    <path d="M470 92c128 0 235 105 245 256 5 85-22 175-72 242-41 54-100 86-173 86V92z" fill="url(#rightSkin)" opacity="0.92"/>

    <path d="M238 338c-38 10-61 39-54 76 7 35 35 52 68 48" fill="#d89179"/>
    <path d="M702 338c38 10 61 39 54 76-7 35-35 52-68 48" fill="#bd7662"/>

    <path d="M302 346c38-34 105-31 145 0" fill="none" stroke="#65413b" stroke-width="12" stroke-linecap="round"/>
    <path d="M492 346c42-30 104-27 143 6" fill="none" stroke="#5b3934" stroke-width="12" stroke-linecap="round"/>
    <ellipse cx="370" cy="374" rx="42" ry="30" fill="#ffffff"/>
    <ellipse cx="570" cy="374" rx="42" ry="30" fill="#f8eee9"/>
    <circle cx="373" cy="374" r="18" fill="#6e7e79"/>
    <circle cx="568" cy="374" r="18" fill="#6a756f"/>
    <circle cx="380" cy="366" r="6" fill="#ffffff"/>
    <circle cx="575" cy="366" r="6" fill="#ffffff"/>

    <path d="M463 388c-5 58-23 95-36 132 18 11 55 12 78-3" fill="none" stroke="#b87163" stroke-width="10" stroke-linecap="round"/>
    <path d="M380 572c51 31 120 32 174 0" fill="none" stroke="#9b534d" stroke-width="12" stroke-linecap="round"/>
    <path d="M410 560c35 13 83 14 122 0" fill="none" stroke="#ffd5d2" stroke-width="8" stroke-linecap="round"/>

    <path d="M500 245c49-18 98-12 136 12" fill="none" stroke="#815149" stroke-width="10" stroke-linecap="round"/>
    <path d="M300 255c48-27 101-29 146-8" fill="none" stroke="#815149" stroke-width="10" stroke-linecap="round"/>

    <path d="M528 294c54-18 104-11 144 20M526 324c52-10 96-3 132 19M526 411c45 11 85 11 122 0M520 455c48 16 91 15 128 2M518 498c39 16 75 18 111 6" fill="none" stroke="#8f564c" stroke-width="5" stroke-linecap="round" opacity="0.55"/>
    <path d="M610 255c25 48 34 102 28 158M642 286c22 43 29 86 21 129" fill="none" stroke="#8f564c" stroke-width="4" stroke-linecap="round" opacity="0.4"/>
    <path d="M300 300c40-17 91-16 130 4M315 428c35 15 74 16 112 5M338 498c28 17 64 21 98 10" fill="none" stroke="#ffffff" stroke-width="7" stroke-linecap="round" opacity="0.45"/>

    <rect x="464" y="74" width="12" height="620" rx="6" fill="#ffffff"/>
    <rect x="270" y="632" width="400" height="42" rx="21" fill="url(#soft)" opacity="0.55"/>
  </g>

  <g font-family="Inter, Arial, sans-serif" font-weight="800">
    <rect x="112" y="96" width="184" height="48" rx="8" fill="#ffffff" opacity="0.88"/>
    <text x="204" y="126" text-anchor="middle" font-size="20" fill="#88493f">Cuidado facial</text>
    <rect x="904" y="96" width="184" height="48" rx="8" fill="#b46a5b"/>
    <text x="996" y="126" text-anchor="middle" font-size="20" fill="#ffffff">Rejuvenecer</text>
  </g>
</svg>
